<mxfile host="app.diagrams.net" modified="2021-11-08T01:15:27.854Z" agent="5.0 (Windows)" etag="paxWZY9gi2s317lITCnK" version="15.7.0" type="github">
  <diagram id="7Iz0PHH2zd7Jkc4wzLcy" name="第 1 页">
    <mxGraphModel dx="562" dy="529" grid="1" gridSize="10" guides="1" tooltips="1" connect="1" arrows="1" fold="1" page="1" pageScale="1" pageWidth="827" pageHeight="1169" math="0" shadow="0">
      <root>
        <mxCell id="0" />
        <mxCell id="1" parent="0" />
        <mxCell id="iq0iHp79A8qW-7Dnm5TV-1" value="&lt;div&gt;想法&lt;/div&gt;" style="rounded=0;whiteSpace=wrap;html=1;" vertex="1" parent="1">
          <mxGeometry x="60" y="260" width="100" height="40" as="geometry" />
        </mxCell>
        <mxCell id="iq0iHp79A8qW-7Dnm5TV-2" value="咨询" style="rounded=0;whiteSpace=wrap;html=1;" vertex="1" parent="1">
          <mxGeometry x="60" y="350" width="100" height="40" as="geometry" />
        </mxCell>
        <mxCell id="iq0iHp79A8qW-7Dnm5TV-3" value="&lt;div&gt;书籍&lt;/div&gt;" style="rounded=0;whiteSpace=wrap;html=1;" vertex="1" parent="1">
          <mxGeometry x="60" y="430" width="100" height="40" as="geometry" />
        </mxCell>
        <mxCell id="iq0iHp79A8qW-7Dnm5TV-6" value="&lt;div&gt;项目&lt;/div&gt;" style="rounded=0;whiteSpace=wrap;html=1;" vertex="1" parent="1">
          <mxGeometry x="60" y="520" width="100" height="40" as="geometry" />
        </mxCell>
      </root>
    </mxGraphModel>
  </diagram>
</mxfile>
